<svg width="36" height="36" viewBox="0 0 36 36" fill="none" xmlns="http://www.w3.org/2000/svg">
<rect width="36.0001" height="36.0001" rx="4" fill="white" fill-opacity="0.1"/>
<path d="M18 26.3334C22.6024 26.3334 26.3334 22.6024 26.3334 18C26.3334 13.3976 22.6024 9.66669 18 9.66669C13.3976 9.66669 9.66669 13.3976 9.66669 18C9.66669 22.6024 13.3976 26.3334 18 26.3334Z" stroke="#F5F3F7" stroke-width="1.5" stroke-linecap="round" stroke-linejoin="round"/>
<path d="M9.66669 18H26.3334" stroke="#F5F3F7" stroke-width="1.5" stroke-linecap="round" stroke-linejoin="round"/>
<path d="M18 9.66669C20.0844 11.9486 21.269 14.91 21.3334 18C21.269 21.09 20.0844 24.0514 18 26.3334C15.9156 24.0514 14.7311 21.09 14.6667 18C14.7311 14.91 15.9156 11.9486 18 9.66669V9.66669Z" stroke="#F5F3F7" stroke-width="1.5" stroke-linecap="round" stroke-linejoin="round"/>
</svg>
